<svg xmlns="http://www.w3.org/2000/svg" viewBox="0 0 210.8 49.35"><defs><style>.cls-1{fill:#fff;}.cls-2{fill:#9b56f0;}</style></defs><g id="Слой_2" data-name="Слой 2"><g id="Слой_1-2" data-name="Слой 1"><path class="cls-1" d="M79.14,11.81a8.16,8.16,0,0,1,0,1.07,2,2,0,0,1-.17.68,1.05,1.05,0,0,1-.26.38.48.48,0,0,1-.34.13H69.4v7.34h8.37a.58.58,0,0,1,.34.11.82.82,0,0,1,.26.35,2.17,2.17,0,0,1,.17.68,9.31,9.31,0,0,1,0,2.11,2.47,2.47,0,0,1-.17.7.92.92,0,0,1-.26.39.58.58,0,0,1-.34.11H69.4V36a.62.62,0,0,1-.13.4.87.87,0,0,1-.45.28,3.78,3.78,0,0,1-.85.18,12.25,12.25,0,0,1-1.35.07,11.91,11.91,0,0,1-1.34-.07,3.64,3.64,0,0,1-.86-.18,1,1,0,0,1-.45-.28.63.63,0,0,1-.14-.4V11.29a1.55,1.55,0,0,1,1.65-1.75H78.32a.58.58,0,0,1,.34.11,1.05,1.05,0,0,1,.26.38,2.31,2.31,0,0,1,.17.71A8.25,8.25,0,0,1,79.14,11.81Z"/><path class="cls-1" d="M88,36.17a.52.52,0,0,1-.12.34.8.8,0,0,1-.4.24,3.4,3.4,0,0,1-.74.15c-.31,0-.7.05-1.18.05s-.87,0-1.18-.05a3.54,3.54,0,0,1-.74-.15.8.8,0,0,1-.4-.24.58.58,0,0,1-.11-.34V10.77a.61.61,0,0,1,.11-.35.9.9,0,0,1,.4-.26,3.4,3.4,0,0,1,.74-.17c.31,0,.71-.05,1.18-.05s.87,0,1.18.05a3.26,3.26,0,0,1,.74.17.9.9,0,0,1,.4.26.55.55,0,0,1,.12.35Z"/><path class="cls-1" d="M107.52,36.23a.56.56,0,0,1-.19.43,1.47,1.47,0,0,1-.61.22,9,9,0,0,1-1.23.07,8.89,8.89,0,0,1-1.26-.07,1.18,1.18,0,0,1-.57-.22.61.61,0,0,1-.16-.43V34.86a8,8,0,0,1-2.42,1.78,7.14,7.14,0,0,1-3,.63,8.77,8.77,0,0,1-2.52-.35,5.69,5.69,0,0,1-2-1.07,4.8,4.8,0,0,1-1.3-1.74,6,6,0,0,1-.47-2.44,5.56,5.56,0,0,1,.59-2.62,4.81,4.81,0,0,1,1.76-1.83A8.58,8.58,0,0,1,97,26.15a20.12,20.12,0,0,1,4-.35h1.68V24.75a5.47,5.47,0,0,0-.17-1.42,2.4,2.4,0,0,0-.54-1,2.22,2.22,0,0,0-1-.6,5.36,5.36,0,0,0-1.56-.19,8,8,0,0,0-2.17.27,12.18,12.18,0,0,0-1.69.6q-.74.33-1.23.6a1.78,1.78,0,0,1-.8.27.59.59,0,0,1-.38-.14,1,1,0,0,1-.27-.38,2.93,2.93,0,0,1-.16-.62,5.13,5.13,0,0,1-.06-.81,3.44,3.44,0,0,1,.1-.95,1.44,1.44,0,0,1,.36-.63,3.68,3.68,0,0,1,.95-.62,13,13,0,0,1,1.58-.63,15.14,15.14,0,0,1,2-.47,13.48,13.48,0,0,1,2.22-.18,13.3,13.3,0,0,1,3.46.39,5.92,5.92,0,0,1,2.37,1.22,4.67,4.67,0,0,1,1.35,2.12,9.64,9.64,0,0,1,.43,3.07Zm-4.77-7.38h-1.86a10.54,10.54,0,0,0-2,.17,3.81,3.81,0,0,0-1.35.53,2.09,2.09,0,0,0-.76.84,2.51,2.51,0,0,0-.24,1.13,2.17,2.17,0,0,0,.68,1.7,2.75,2.75,0,0,0,1.9.61,3.54,3.54,0,0,0,1.89-.52,7.8,7.8,0,0,0,1.75-1.52Z"/><path class="cls-1" d="M127.9,20.14a3.38,3.38,0,0,1-.21,1.37c-.14.29-.32.44-.52.44h-2a2.88,2.88,0,0,1,.61,1.06,4.14,4.14,0,0,1,.18,1.22,6.81,6.81,0,0,1-.5,2.68,5.47,5.47,0,0,1-1.44,2,6.55,6.55,0,0,1-2.26,1.22,10.06,10.06,0,0,1-3,.41,6.27,6.27,0,0,1-1.58-.2,4.19,4.19,0,0,1-1.16-.47,2.7,2.7,0,0,0-.42.59,1.69,1.69,0,0,0-.18.78,1.06,1.06,0,0,0,.49.91,2.46,2.46,0,0,0,1.38.4l4.2.16a9.65,9.65,0,0,1,2.61.41,5.58,5.58,0,0,1,1.94,1,4.27,4.27,0,0,1,1.19,1.55,4.91,4.91,0,0,1,.42,2.07,5.36,5.36,0,0,1-.56,2.4,5.3,5.3,0,0,1-1.68,2,8.62,8.62,0,0,1-2.81,1.32,14.58,14.58,0,0,1-4,.48,17,17,0,0,1-3.76-.35,8.19,8.19,0,0,1-2.55-1,3.94,3.94,0,0,1-1.45-1.48,4,4,0,0,1-.45-1.88,4.39,4.39,0,0,1,.16-1.22,4.55,4.55,0,0,1,.48-1.11,6.21,6.21,0,0,1,.79-1,7.45,7.45,0,0,1,1.06-.92,3.28,3.28,0,0,1-1.29-1.21,3.24,3.24,0,0,1-.45-1.67,4.2,4.2,0,0,1,.52-2.08,6.79,6.79,0,0,1,1.35-1.69A5.11,5.11,0,0,1,112,26.67a6,6,0,0,1-.4-2.36,6.51,6.51,0,0,1,.53-2.7,5.57,5.57,0,0,1,1.47-2,6.6,6.6,0,0,1,2.27-1.26,9.13,9.13,0,0,1,2.89-.44,11.5,11.5,0,0,1,2.94.37h5.47c.22,0,.39.14.53.43A3.7,3.7,0,0,1,127.9,20.14ZM122.8,38a1.5,1.5,0,0,0-.69-1.33,3.71,3.71,0,0,0-1.92-.51L116.73,36a5.32,5.32,0,0,0-.8.7,4.14,4.14,0,0,0-.48.65,2.09,2.09,0,0,0-.24.6,2.91,2.91,0,0,0-.06.6,1.6,1.6,0,0,0,1,1.47,6.16,6.16,0,0,0,2.75.5,6.94,6.94,0,0,0,1.85-.22,3.65,3.65,0,0,0,1.22-.59,2.18,2.18,0,0,0,.66-.82A2.45,2.45,0,0,0,122.8,38Zm-1.14-13.76a2.68,2.68,0,0,0-3-2.93,3.08,3.08,0,0,0-1.26.24,2.51,2.51,0,0,0-.9.66,2.64,2.64,0,0,0-.53,1,3.68,3.68,0,0,0-.17,1.15,2.77,2.77,0,0,0,.77,2.08,2.9,2.9,0,0,0,2.14.76A3.33,3.33,0,0,0,120,26.9a2.58,2.58,0,0,0,.9-.64,2.82,2.82,0,0,0,.54-.94A3.4,3.4,0,0,0,121.66,24.21Z"/><path class="cls-1" d="M136,36.17a.52.52,0,0,1-.12.34.8.8,0,0,1-.4.24,3.4,3.4,0,0,1-.74.15c-.31,0-.7.05-1.18.05s-.87,0-1.18-.05a3.54,3.54,0,0,1-.74-.15.8.8,0,0,1-.4-.24.58.58,0,0,1-.11-.34V10.77a.61.61,0,0,1,.11-.35.9.9,0,0,1,.4-.26,3.4,3.4,0,0,1,.74-.17c.31,0,.71-.05,1.18-.05s.87,0,1.18.05a3.26,3.26,0,0,1,.74.17.9.9,0,0,1,.4.26.55.55,0,0,1,.12.35Z"/><path class="cls-1" d="M158.27,27.38a13.06,13.06,0,0,1-.58,4,8.49,8.49,0,0,1-1.75,3.13,7.9,7.9,0,0,1-3,2,11,11,0,0,1-4.15.71,11.46,11.46,0,0,1-4-.63A7.17,7.17,0,0,1,142,34.78a7.6,7.6,0,0,1-1.67-3,14,14,0,0,1-.54-4.06,13.16,13.16,0,0,1,.59-4,8.37,8.37,0,0,1,1.77-3.13,8,8,0,0,1,3-2,11.11,11.11,0,0,1,4.14-.71,11.54,11.54,0,0,1,4,.63,7,7,0,0,1,2.81,1.84,7.66,7.66,0,0,1,1.65,3A14,14,0,0,1,158.27,27.38Zm-5,.19a13,13,0,0,0-.2-2.34,5.68,5.68,0,0,0-.69-1.87,3.43,3.43,0,0,0-1.28-1.23,4.11,4.11,0,0,0-2-.45,4.19,4.19,0,0,0-1.9.4,3.37,3.37,0,0,0-1.33,1.16,5.44,5.44,0,0,0-.78,1.83,10.12,10.12,0,0,0-.26,2.45,12.12,12.12,0,0,0,.21,2.34,5.68,5.68,0,0,0,.69,1.87A3.22,3.22,0,0,0,147,33a4.84,4.84,0,0,0,3.92,0,3.28,3.28,0,0,0,1.33-1.15A5.3,5.3,0,0,0,153,30,11.26,11.26,0,0,0,153.27,27.57Z"/><path class="cls-1" d="M179.54,27.38a13.06,13.06,0,0,1-.58,4,8.49,8.49,0,0,1-1.75,3.13,7.82,7.82,0,0,1-3,2,11,11,0,0,1-4.15.71,11.46,11.46,0,0,1-4-.63,7.17,7.17,0,0,1-2.82-1.86,7.58,7.58,0,0,1-1.66-3,13.66,13.66,0,0,1-.55-4.06,13.16,13.16,0,0,1,.59-4,8.66,8.66,0,0,1,1.77-3.13,8,8,0,0,1,2.95-2,11.14,11.14,0,0,1,4.14-.71,11.54,11.54,0,0,1,4,.63,7,7,0,0,1,2.81,1.84,7.66,7.66,0,0,1,1.65,3A14,14,0,0,1,179.54,27.38Zm-5,.19a13,13,0,0,0-.2-2.34,5.68,5.68,0,0,0-.69-1.87,3.43,3.43,0,0,0-1.28-1.23,4.11,4.11,0,0,0-2-.45,4.25,4.25,0,0,0-1.9.4,3.37,3.37,0,0,0-1.33,1.16,5.44,5.44,0,0,0-.78,1.83,10.12,10.12,0,0,0-.26,2.45,12.12,12.12,0,0,0,.21,2.34,5.68,5.68,0,0,0,.69,1.87A3.22,3.22,0,0,0,168.26,33a4.84,4.84,0,0,0,3.92,0,3.37,3.37,0,0,0,1.34-1.15,5.49,5.49,0,0,0,.77-1.82A10.68,10.68,0,0,0,174.54,27.57Z"/><path class="cls-1" d="M210.8,36.17a.58.58,0,0,1-.11.34.82.82,0,0,1-.39.24,3.29,3.29,0,0,1-.73.15c-.31,0-.71.05-1.18.05s-.89,0-1.2-.05a3.4,3.4,0,0,1-.74-.15.73.73,0,0,1-.39-.24.58.58,0,0,1-.11-.34V26a7,7,0,0,0-.16-1.58,3.82,3.82,0,0,0-.5-1.23,2.33,2.33,0,0,0-2.08-1.07,2.88,2.88,0,0,0-1.76.68,11.69,11.69,0,0,0-1.93,2V36.17a.52.52,0,0,1-.12.34.73.73,0,0,1-.39.24,3.68,3.68,0,0,1-.74.15c-.31,0-.7.05-1.16.05s-.87,0-1.18-.05a3.65,3.65,0,0,1-.75-.15.77.77,0,0,1-.39-.24.52.52,0,0,1-.12-.34V26a7,7,0,0,0-.16-1.58,3.82,3.82,0,0,0-.5-1.23,2.23,2.23,0,0,0-.85-.79,2.46,2.46,0,0,0-1.21-.28,2.86,2.86,0,0,0-1.78.68,11,11,0,0,0-1.91,2V36.17a.52.52,0,0,1-.12.34.82.82,0,0,1-.39.24,3.65,3.65,0,0,1-.75.15c-.31,0-.7.05-1.18.05s-.87,0-1.18-.05a3.68,3.68,0,0,1-.74-.15.8.8,0,0,1-.4-.24.58.58,0,0,1-.11-.34V18.94a.57.57,0,0,1,.1-.34.65.65,0,0,1,.34-.24,3.71,3.71,0,0,1,.65-.15,9.29,9.29,0,0,1,1,0,9.7,9.7,0,0,1,1,0,2.92,2.92,0,0,1,.63.15.68.68,0,0,1,.32.24.64.64,0,0,1,.09.34v2a11.77,11.77,0,0,1,2.85-2.32,6.2,6.2,0,0,1,3-.77,7.48,7.48,0,0,1,1.91.22,5.48,5.48,0,0,1,1.52.64,5,5,0,0,1,1.15,1,5.93,5.93,0,0,1,.81,1.3,14.07,14.07,0,0,1,1.51-1.43,9.15,9.15,0,0,1,1.47-1,6.86,6.86,0,0,1,1.45-.56,6.18,6.18,0,0,1,1.48-.18,6.49,6.49,0,0,1,2.9.58,5.05,5.05,0,0,1,1.9,1.57,6.33,6.33,0,0,1,1,2.33,12.25,12.25,0,0,1,.31,2.82Z"/><path class="cls-2" d="M45.65,6.2a33.27,33.27,0,0,0-8.82-4.37A27.68,27.68,0,0,0,27.52.41a28.29,28.29,0,0,0-9.19,1.73A25.43,25.43,0,0,0,10.24,7a27.67,27.67,0,0,0-5.86,7.7c-.17.37-.37.73-.55,1.11s-.35.75-.5,1.13-.32.77-.46,1.16-.29.79-.41,1.19a27.7,27.7,0,0,0-1.08,5,25.19,25.19,0,0,0,0,5.21,22.26,22.26,0,0,0,7,13.95,21.69,21.69,0,0,0,9.17,5,29.05,29.05,0,0,0,10,.79A36.4,36.4,0,0,0,37,47.13a36.25,36.25,0,0,0,8.76-4.6,26.33,26.33,0,0,0,3.91-3.43,22,22,0,0,0,3.19-4.3,20.83,20.83,0,0,0,2.73-10.48,21.2,21.2,0,0,0-2.8-10.45A23.93,23.93,0,0,0,45.65,6.2Z"/><path class="cls-1" d="M31.59,43.3a1.87,1.87,0,0,1-1.82-1.44L21.62,7.65a1.87,1.87,0,0,1,3.65-.86L33.42,41A1.87,1.87,0,0,1,32,43.25,2.2,2.2,0,0,1,31.59,43.3Z"/><path class="cls-1" d="M17.87,16a1.88,1.88,0,0,1-.43-3.7L31.12,9.07A1.88,1.88,0,1,1,32,12.72L18.3,16A1.58,1.58,0,0,1,17.87,16Z"/><path class="cls-1" d="M23.49,39.62a1.88,1.88,0,0,1-.44-3.7l13.69-3.26a1.87,1.87,0,0,1,.86,3.65L23.92,39.57A2.1,2.1,0,0,1,23.49,39.62Z"/><path class="cls-1" d="M18.31,34.62a1.88,1.88,0,0,1-.43-3.7L39.1,25.87A1.87,1.87,0,1,1,40,29.51L18.74,34.57A1.58,1.58,0,0,1,18.31,34.62Z"/><path class="cls-1" d="M15.5,22.83a1.88,1.88,0,0,1-.43-3.7L36.3,14.07a1.87,1.87,0,0,1,.86,3.65L15.94,22.78A2.28,2.28,0,0,1,15.5,22.83Z"/><path class="cls-1" d="M13.84,29.46a1.88,1.88,0,0,1-.44-3.7l27.37-6.52a1.88,1.88,0,0,1,.87,3.65L14.27,29.4A1.59,1.59,0,0,1,13.84,29.46Z"/><path class="cls-2" d="M44.41,5.79A33,33,0,0,0,35.6,1.43,27.72,27.72,0,0,0,26.29,0,28,28,0,0,0,17.1,1.74,25.25,25.25,0,0,0,9,6.64a27.48,27.48,0,0,0-5.86,7.7c-.18.37-.38.73-.55,1.11s-.35.75-.5,1.13-.33.77-.47,1.16-.28.79-.4,1.19a27.7,27.7,0,0,0-1.08,5,24.51,24.51,0,0,0,0,5.21,21.89,21.89,0,0,0,1.18,5.14,22.28,22.28,0,0,0,5.82,8.81,21.76,21.76,0,0,0,9.16,5,29.12,29.12,0,0,0,10,.78,36.48,36.48,0,0,0,9.45-2.1,36.8,36.8,0,0,0,8.76-4.6,26.84,26.84,0,0,0,3.91-3.43,22.62,22.62,0,0,0,3.19-4.3,21,21,0,0,0,2.73-10.48,21.26,21.26,0,0,0-2.8-10.46A24.06,24.06,0,0,0,44.41,5.79Z"/><path class="cls-1" d="M30.36,42.9a1.87,1.87,0,0,1-1.82-1.44L20.39,7.25A1.88,1.88,0,0,1,24,6.38l8.15,34.21a1.89,1.89,0,0,1-1.39,2.26A2.28,2.28,0,0,1,30.36,42.9Z"/><path class="cls-1" d="M16.64,15.63a1.88,1.88,0,0,1-.44-3.7L29.88,8.67a1.88,1.88,0,1,1,.87,3.65L17.07,15.58A2.1,2.1,0,0,1,16.64,15.63Z"/><path class="cls-1" d="M22.25,39.22a1.88,1.88,0,0,1-.43-3.7L35.5,32.26a1.88,1.88,0,0,1,.87,3.65L22.69,39.17A2.2,2.2,0,0,1,22.25,39.22Z"/><path class="cls-1" d="M17.08,34.22a1.88,1.88,0,0,1-.44-3.7l21.23-5.06a1.88,1.88,0,1,1,.87,3.65L17.51,34.17A2.1,2.1,0,0,1,17.08,34.22Z"/><path class="cls-1" d="M14.27,22.43a1.88,1.88,0,0,1-.44-3.7l21.23-5.06a1.88,1.88,0,0,1,.87,3.65L14.7,22.38A2.1,2.1,0,0,1,14.27,22.43Z"/><path class="cls-1" d="M12.6,29.05a1.88,1.88,0,0,1-.43-3.7l27.36-6.51a1.88,1.88,0,0,1,.87,3.65L13,29A1.65,1.65,0,0,1,12.6,29.05Z"/></g></g></svg>